<mxfile host="app.diagrams.net" agent="Mozilla/5.0 (Macintosh; Intel Mac OS X 10_15_7) AppleWebKit/537.36 (KHTML, like Gecko) Chrome/131.0.0.0 Safari/537.36" version="25.0.3">
  <diagram name="Page-1" id="Y0Gy5NYn32qZPiLOd5Rk">
    <mxGraphModel dx="1266" dy="599" grid="1" gridSize="10" guides="1" tooltips="1" connect="1" arrows="1" fold="1" page="1" pageScale="1" pageWidth="850" pageHeight="1100" math="0" shadow="0">
      <root>
        <mxCell id="0" />
        <mxCell id="1" parent="0" />
        <mxCell id="GWgCQeXikhsRdvunHpwr-1" value="" style="sketch=0;outlineConnect=0;fontColor=#232F3E;gradientColor=none;fillColor=#01A88D;strokeColor=none;dashed=0;verticalLabelPosition=bottom;verticalAlign=top;align=center;html=1;fontSize=12;fontStyle=0;aspect=fixed;shape=mxgraph.aws4.transfer_for_sftp_resource;" vertex="1" parent="1">
          <mxGeometry x="110" y="156.5" width="76" height="78" as="geometry" />
        </mxCell>
        <mxCell id="GWgCQeXikhsRdvunHpwr-5" style="edgeStyle=orthogonalEdgeStyle;rounded=0;orthogonalLoop=1;jettySize=auto;html=1;" edge="1" parent="1" source="GWgCQeXikhsRdvunHpwr-2" target="GWgCQeXikhsRdvunHpwr-4">
          <mxGeometry relative="1" as="geometry" />
        </mxCell>
        <mxCell id="GWgCQeXikhsRdvunHpwr-6" style="edgeStyle=orthogonalEdgeStyle;rounded=0;orthogonalLoop=1;jettySize=auto;html=1;" edge="1" parent="1" source="GWgCQeXikhsRdvunHpwr-2" target="GWgCQeXikhsRdvunHpwr-3">
          <mxGeometry relative="1" as="geometry" />
        </mxCell>
        <mxCell id="GWgCQeXikhsRdvunHpwr-7" value="adquisicion de Datos" style="edgeStyle=orthogonalEdgeStyle;rounded=0;orthogonalLoop=1;jettySize=auto;html=1;" edge="1" parent="1" source="GWgCQeXikhsRdvunHpwr-2" target="GWgCQeXikhsRdvunHpwr-1">
          <mxGeometry relative="1" as="geometry" />
        </mxCell>
        <mxCell id="GWgCQeXikhsRdvunHpwr-2" value="" style="shape=image;verticalLabelPosition=bottom;labelBackgroundColor=default;verticalAlign=top;aspect=fixed;imageAspect=0;image=https://static-00.iconduck.com/assets.00/airflow-icon-2048x2048-ptyvisqh.png;" vertex="1" parent="1">
          <mxGeometry x="330" y="140" width="111" height="111" as="geometry" />
        </mxCell>
        <mxCell id="GWgCQeXikhsRdvunHpwr-3" value="Monokera" style="image;aspect=fixed;html=1;points=[];align=center;fontSize=12;image=img/lib/azure2/databases/Azure_Database_PostgreSQL_Server.svg;" vertex="1" parent="1">
          <mxGeometry x="600" y="163.5" width="48" height="64" as="geometry" />
        </mxCell>
        <mxCell id="GWgCQeXikhsRdvunHpwr-4" value="Metadata Airflow" style="image;aspect=fixed;html=1;points=[];align=center;fontSize=12;image=img/lib/azure2/databases/Azure_Database_PostgreSQL_Server.svg;" vertex="1" parent="1">
          <mxGeometry x="361.5" y="370" width="48" height="64" as="geometry" />
        </mxCell>
      </root>
    </mxGraphModel>
  </diagram>
</mxfile>
